<svg width="18" height="18" viewBox="0 0 18 18" fill="none" xmlns="http://www.w3.org/2000/svg">
<path d="M8.15 1.35C8.15 0.880591 8.53059 0.5 9 0.5C9.46941 0.5 9.85 0.880591 9.85 1.35V2.2C9.85 2.66941 9.46941 3.05 9 3.05C8.53059 3.05 8.15 2.66941 8.15 2.2V1.35Z" fill="#FF7000"/>
<path d="M13.25 9C13.25 11.3473 11.3473 13.25 9 13.25C6.65275 13.25 4.75 11.3473 4.75 9C4.75 6.65275 6.65275 4.75 9 4.75C11.3473 4.75 13.25 6.65275 13.25 9Z" fill="#FF7000"/>
<path d="M9 14.95C8.53059 14.95 8.15 15.3306 8.15 15.8V16.65C8.15 17.1194 8.53059 17.5 9 17.5C9.46941 17.5 9.85 17.1194 9.85 16.65V15.8C9.85 15.3306 9.46941 14.95 9 14.95Z" fill="#FF7000"/>
<path d="M2.98961 4.19167C2.65758 3.85964 2.65758 3.32154 2.98961 2.98951C3.32154 2.65758 3.85974 2.65758 4.19167 2.98951L4.79265 3.59059C5.12468 3.92252 5.12468 4.46072 4.79265 4.79265C4.46072 5.12457 3.92252 5.12457 3.59059 4.79265L2.98961 4.19167Z" fill="#FF7000"/>
<path d="M13.2073 13.2073C12.8753 13.5392 12.8753 14.0774 13.2073 14.4093L13.8083 15.0104C14.1403 15.3423 14.6785 15.3423 15.0104 15.0104C15.3423 14.6785 15.3423 14.1403 15.0104 13.8083L14.4093 13.2073C14.0774 12.8753 13.5392 12.8753 13.2073 13.2073Z" fill="#FF7000"/>
<path d="M1.35 9.85C0.880591 9.85 0.5 9.46941 0.5 9C0.5 8.53059 0.880591 8.15 1.35 8.15H2.2C2.66941 8.15 3.05 8.53059 3.05 9C3.05 9.46941 2.66941 9.85 2.2 9.85H1.35Z" fill="#FF7000"/>
<path d="M14.95 9C14.95 9.46941 15.3306 9.85 15.8 9.85H16.65C17.1194 9.85 17.5 9.46941 17.5 9C17.5 8.53059 17.1194 8.15 16.65 8.15H15.8C15.3306 8.15 14.95 8.53059 14.95 9Z" fill="#FF7000"/>
<path d="M3.68605 14.5684C3.32652 14.8701 2.79029 14.8232 2.48856 14.4637C2.18682 14.104 2.23372 13.5679 2.59335 13.2661L3.24445 12.7198C3.60408 12.4181 4.1402 12.465 4.44204 12.8245C4.74377 13.1841 4.69688 13.7202 4.33724 14.0221L3.68605 14.5684Z" fill="#FF7000"/>
<path d="M13.558 5.17531C13.8597 5.53494 14.3958 5.58184 14.7555 5.28011L15.4065 4.73371C15.7662 4.43198 15.8131 3.89585 15.5113 3.53622C15.2096 3.17659 14.6735 3.12969 14.3138 3.43152L13.6627 3.97782C13.3031 4.27955 13.2562 4.81578 13.558 5.17531Z" fill="#FF7000"/>
</svg>
