<?xml version="1.0" encoding="UTF-8"?>
<svg version="1.1" xmlns="http://www.w3.org/2000/svg" width="48" height="48">
<path d="M0 0 C22 0 22 0 28.3359375 3.8984375 C33.92193189 11.03511803 33.09901375 19.03730181 32.625 27.625 C32.57474392 29.217307 32.52913329 30.80976773 32.48828125 32.40234375 C32.38753077 36.27519233 32.19218667 40.1263709 32 44 C21.44 44 10.88 44 0 44 C0 29.48 0 14.96 0 0 Z " fill="#4184F4" transform="translate(8,2)"/>
<path d="M0 0 C4.15358254 3.43469325 7.78875342 6.63270466 11 11 C7.37 11 3.74 11 0 11 C0 7.37 0 3.74 0 0 Z " fill="#1967D1" transform="translate(29,2)"/>
<path d="M0 0 C5.94 0 11.88 0 18 0 C18 0.99 18 1.98 18 3 C12.06 3 6.12 3 0 3 C0 2.01 0 1.02 0 0 Z " fill="#DFEAFD" transform="translate(15,25)"/>
<path d="M0 0 C5.94 0 11.88 0 18 0 C18 0.99 18 1.98 18 3 C12.06 3 6.12 3 0 3 C0 2.01 0 1.02 0 0 Z " fill="#DFEAFD" transform="translate(15,19)"/>
<path d="M0 0 C4.29 0 8.58 0 13 0 C13 0.99 13 1.98 13 3 C8.71 3 4.42 3 0 3 C0 2.01 0 1.02 0 0 Z " fill="#DFEAFD" transform="translate(15,31)"/>
</svg>
